Motion_mu01
version=1
nRows=16
nColumns=43
inDegrees=yes
endheader
time	pelvis_tilt	pelvis_list	pelvis_rotation	pelvis_tx	pelvis_ty	pelvis_tz	hip_flexion_r	hip_adduction_r	hip_rotation_r	knee_angle_r	ankle_angle_r	subtalar_angle_r	mtp_angle_r	hip_flexion_l	hip_adduction_l	hip_rotation_l	knee_angle_l	ankle_angle_l	subtalar_angle_l	mtp_angle_l	lumbar_extension	lumbar_bending	lumbar_rotation	neck_flexion	neck_lateral_bending	neck_rotation	arm_flex_r	arm_add_r	arm_rot_r	elbow_flex_r	pro_sup_r	wrist_flex_r	wrist_dev_r	hand_finger_flex_r	arm_flex_l	arm_add_l	arm_rot_l	elbow_flex_l	pro_sup_l	wrist_flex_l	wrist_dev_l	hand_finger_flex_l
      0.00250000	      1.37262481	      8.47957301	    -89.43171738	     -0.00643407	      0.95444348	      0.72966128	     13.68473848	     -6.44339312	      0.65665931	    -35.76966497	      4.39585080	     -8.16882646	      9.65256187	     10.43879444	     -2.38675503	    -14.10426775	    -11.35746879	      4.06501548	     23.92696663	      5.71305207	     -1.50012529	     -1.71204577	      7.43459626	     35.82174292	     -6.46920065	     -8.93087971	    -25.08998478	   -140.66197780	   -118.06904866	     51.00796026	    118.94554658	     22.04976346	    -10.44154979	    -24.72642053	    143.66790479	    -21.10258902	     47.47435645	     44.01528697	    121.39136381	      7.68629219	      1.69511894	    -11.73592586
      0.00500000	      1.36975769	      8.48149897	    -89.44120565	     -0.00607059	      0.95457143	      0.73055012	     13.71084254	     -6.42298164	      0.65409767	    -35.76364882	      4.39890486	     -8.16911637	      9.65341992	     10.38773221	     -2.36473123	    -14.10442507	    -11.38155110	      4.05873093	     23.92512830	      5.71295377	     -1.47757037	     -1.70405702	      7.40982715	     35.81506274	     -6.47209260	     -8.92920370	    -25.06696742	   -140.65704028	   -118.07984012	     51.01604733	    118.94056235	     22.04973088	    -10.44702497	    -24.73073122	    143.67860929	    -21.09043183	     47.47400878	     44.02596334	    121.39019360	      7.68747981	      1.69335102	    -11.74110311
      0.00750000	      1.31754657	      8.46819860	    -89.34105645	     -0.00570038	      0.95471871	      0.73148821	     13.73719132	     -6.34062268	      0.64943594	    -35.89284481	      4.51530240	     -8.22898112	      9.67483409	     10.28823057	     -2.37529153	    -14.16727269	    -11.29932646	      4.03217488	     23.86210605	      5.71834483	     -1.49640952	     -1.69006728	      7.28473911	     35.66381028	     -6.51072631	     -8.89404467	    -25.00713486	   -140.50031440	   -118.12435800	     51.19711128	    118.81224749	     22.14270487	    -10.60808942	    -24.78614677	    143.77001387	    -21.08329145	     47.48399526	     44.15806733	    121.36065432	      7.76955691	      1.66275261	    -11.81951136
      0.01000000	      1.31514377	      8.46788762	    -89.35170577	     -0.00533622	      0.95483644	      0.73241409	     13.76394890	     -6.32120766	      0.64568566	    -35.88523917	      4.52211031	     -8.23221348	      9.67576159	     10.23532557	     -2.35565485	    -14.16491289	    -11.32664583	      4.02683119	     23.86251976	      5.71846339	     -1.47001342	     -1.68009554	      7.26299654	     35.65953284	     -6.50973545	     -8.89382756	    -24.98723935	   -140.49773015	   -118.13240602	     51.19767959	    118.80627090	     22.14752079	    -10.61379000	    -24.78876710	    143.77678286	    -21.06967637	     47.48549900	     44.16947006	    121.35827724	      7.77468125	      1.65939053	    -11.82293031
      0.01250000	      1.22385966	      8.43954410	    -89.22963080	     -0.00502408	      0.95495786	      0.73358505	     13.76888344	     -6.18292641	      0.60236047	    -36.05347893	      4.81712745	     -8.38844133	      9.71401624	     10.10323266	     -2.41011332	    -14.20027717	    -11.24224530	      4.02188447	     23.83108708	      5.73475005	     -1.46255409	     -1.63585267	      7.15001693	     35.44769166	     -6.46443590	     -8.87976398	    -24.94355837	   -140.31568236	   -118.14830707	     51.33417058	    118.56050243	     22.43708328	    -10.88365756	    -24.83738317	    143.82709086	    -21.07790931	     47.53775198	     44.38594286	    121.26917937	      8.03390097	      1.56080909	    -11.90289462
      0.01500000	      1.22316735	      8.43865492	    -89.24397095	     -0.00467157	      0.95505770	      0.73453268	     13.79861607	     -6.16558080	      0.59908280	    -36.03871730	      4.82240101	     -8.39010918	      9.71449511	     10.05081498	     -2.39254770	    -14.19647200	    -11.27127786	      4.01796200	     23.83348892	      5.73508967	     -1.43598331	     -1.62601902	      7.12622375	     35.44357657	     -6.46335802	     -8.88057936	    -24.91899733	   -140.30915420	   -118.15861821	     51.33049038	    118.55480990	     22.44283984	    -10.88725535	    -24.83975293	    143.83532967	    -21.07363803	     47.53631977	     44.39074561	    121.26621595	      8.04047728	      1.55826458	    -11.90557754
      0.01750000	      1.21387105	      8.44355126	    -89.24861953	     -0.00429225	      0.95505021	      0.73578093	     13.80207298	     -6.14142935	      0.59486678	    -36.05168876	      4.84995539	     -8.39817139	      9.71794888	      9.98857237	     -2.38199970	    -14.19522460	    -11.29673461	      4.01718171	     23.83656324	      5.73712383	     -1.38304893	     -1.60942524	      7.09582493	     35.41331442	     -6.46395563	     -8.88144912	    -24.88125788	   -140.28795735	   -118.17545470	     51.34350285	    118.52946738	     22.47336898	    -10.90900622	    -24.84478667	    143.88888192	    -21.06972937	     47.52247038	     44.42679854	    121.25192872	      8.06790716	      1.54236091	    -11.91260884
      0.02000000	      1.21170296	      8.43886897	    -89.25402868	     -0.00400556	      0.95518577	      0.73659727	     13.84952932	     -6.10880276	      0.58960466	    -36.03903725	      4.86279171	     -8.39881153	      9.71967437	      9.93493651	     -2.36138548	    -14.19566177	    -11.32177944	      4.01612325	     23.83819353	      5.73780917	     -1.37331250	     -1.60548564	      7.06611974	     35.39870441	     -6.46664283	     -8.88141476	    -24.86061092	   -140.27635334	   -118.18275158	     51.35156567	    118.52107227	     22.48355966	    -10.91626327	    -24.84590088	    143.89638028	    -21.06396396	     47.52186153	     44.44174698	    121.24653735	      8.07886832	      1.53509167	    -11.91373806
      0.02250000	      0.97622048	      8.41231422	    -88.90410766	     -0.00351420	      0.95517823	      0.73801281	     13.71377017	     -5.88041884	      0.27907239	    -36.04106416	      5.53398537	     -8.01991459	      9.81706092	      9.85436240	     -2.57704216	    -14.15783193	    -11.31505607	      4.23503537	     24.21372415	      5.89144985	     -1.39346295	     -1.39924052	      6.67235848	     35.22658040	     -6.48802869	     -9.00972709	    -24.73176693	   -140.16027402	   -118.40508817	     51.35471882	    117.37897342	     24.23475390	    -11.35385755	    -25.38206047	    144.22799779	    -21.23243277	     47.52429060	     44.67464676	    120.44692511	     10.26019242	      1.05854327	    -12.38310357
      0.02500000	      0.97469304	      8.40405580	    -88.92734304	     -0.00328467	      0.95520658	      0.73912438	     13.74848102	     -5.85020044	      0.25819042	    -36.07112888	      5.54611042	     -8.01738958	      9.81943878	      9.78667058	     -2.56856252	    -14.15173430	    -11.34862459	      4.22757005	     24.21591499	      5.89258075	     -1.36555213	     -1.40073600	      6.64567342	     35.18976003	     -6.48633138	     -9.00423724	    -24.70234217	   -140.12769093	   -118.41266710	     51.36902628	    117.37937440	     24.23395841	    -11.34200942	    -25.40135727	    144.27557267	    -21.24350311	     47.50109324	     44.71141337	    120.43953857	     10.26390201	      1.05321486	    -12.40370723
      0.02750000	      0.93667756	      8.34469276	    -88.87708757	     -0.00309974	      0.95540630	      0.73984684	     13.85055923	     -5.76419300	      0.20285023	    -36.31716348	      5.68502167	     -7.94817491	      9.84988825	      9.68532895	     -2.59084300	    -14.16988741	    -11.35082591	      4.23246540	     24.21804492	      5.90661516	     -1.44264790	     -1.39492596	      6.55778008	     34.94649078	     -6.43079682	     -8.97715549	    -24.64269208	   -139.98978738	   -118.38122700	     51.57677483	    117.36249999	     24.29537270	    -11.28161920	    -25.51471144	    144.30508565	    -21.30754696	     47.48171350	     44.95591214	    120.37334617	     10.40838538	      0.99229480	    -12.51012909
      0.03000000	      0.94083348	      8.33403466	    -88.88831273	     -0.00289383	      0.95547878	      0.74076718	     13.89504545	     -5.73797904	      0.19797601	    -36.29882519	      5.69074526	     -7.94165702	      9.85118662	      9.62810706	     -2.57551732	    -14.16773910	    -11.38069665	      4.22922643	     24.21948892	      5.90704177	     -1.41767070	     -1.39438852	      6.52896887	     34.93840250	     -6.43219674	     -8.97702623	    -24.62839761	   -139.97688970	   -118.38078591	     51.57549021	    117.36302204	     24.29957923	    -11.27684737	    -25.51806543	    144.31660357	    -21.30868241	     47.47688674	     44.96503638	    120.37030884	     10.41348121	      0.99025922	    -12.51395482
      0.03250000	      1.10546808	      8.21576982	    -88.55233982	     -0.00186253	      0.95568119	      0.74237061	     13.64286227	     -6.15482707	     -0.46226757	    -36.28572832	      6.57306458	     -6.00645304	     10.43755826	      9.42191767	     -2.32074890	    -13.98669830	    -11.34632177	      4.14285282	     24.52114013	      6.34513151	     -1.51319723	     -1.54808522	      5.95988169	     34.77615266	     -6.22773417	     -8.84660795	    -24.66791044	   -140.01258851	   -118.47281722	     51.81379869	    116.33060441	     26.25162784	    -10.05621268	    -28.84585733	    144.34152170	    -21.58357287	     46.83420143	     45.59691716	    119.36153283	     13.61419191	      1.66868431	    -16.61107357
      0.03500000	      1.10747580	      8.20748560	    -88.56803675	     -0.00163682	      0.95576403	      0.74322848	     13.68935003	     -6.11736747	     -0.47024380	    -36.26770320	      6.57662599	     -6.00611790	     10.43841355	      9.36909165	     -2.30055702	    -13.98753290	    -11.37228581	      4.14002960	     24.51914061	      6.34533754	     -1.49397936	     -1.54222905	      5.93349223	     34.76634004	     -6.23808986	     -8.84574856	    -24.65040187	   -139.99296947	   -118.47476243	     51.82032748	    116.33164052	     26.25381235	    -10.05754044	    -28.84661010	    144.35426542	    -21.58244575	     46.83368276	     45.60300926	    119.36234116	     13.61672063	      1.66643306	    -16.61365299
      0.03750000	      0.88674183	      8.25020966	    -88.55449640	     -0.00175436	      0.95574593	      0.74462544	     13.69969553	     -5.79253156	     -0.46064676	    -36.20143665	      6.77336700	     -5.92488229	     10.50636192	      9.29747284	     -2.53164509	    -14.08312090	    -11.30451019	      4.19114682	     24.38413625	      6.37448817	     -1.35290680	     -1.37102227	      5.98214270	     34.42619347	     -6.31937392	     -8.87383819	    -24.52554047	   -139.68859560	   -118.14301714	     52.16005595	    116.39342353	     26.61116171	    -10.10372012	    -28.81739897	    144.42743694	    -21.64754735	     47.10456531	     45.85306460	    119.38952569	     14.04709365	      1.55205082	    -16.70673842
      0.04000000	      0.89383477	      8.24312435	    -88.56926486	     -0.00157678	      0.95585657	      0.74545175	     13.74904961	     -5.75889488	     -0.46277995	    -36.17475427	      6.77576529	     -5.91906658	     10.50739284	      9.24489906	     -2.51149384	    -14.08243681	    -11.33319221	      4.18964540	     24.38513849	      6.37496076	     -1.33640229	     -1.36843567	      5.94852770	     34.41635624	     -6.32246807	     -8.87492663	    -24.50367090	   -139.67276302	   -118.14364476	     52.16307462	    116.39405097	     26.61630139	    -10.10346796	    -28.81666175	    144.44110078	    -21.66046810	     47.09698662	     45.85123260	    119.38885191	     14.04913355	      1.55254172	    -16.70920868
